# xmcd
#
# Track frame offsets:
#	150
#	18154
#	34375
#	49857
#	69287
#	84421
#	106933
#	124311
#	142718
#	161752
#	179992
#	199572
#	213602
#	229644
#
# Disc length: 3243 seconds
#
# Revision: 0
# Processed by: cddbd v1.5.1PL0 Copyright (c) Steve Scherf et al.
# Submitted via: dBpowerAMP V4.0
#
DISCID=c00ca90e
DTITLE=John Studebaker and The Hawks - Tremoluxe
DYEAR=1996
DGENRE=Blues
TTITLE0=Two Time Boogie
TTITLE1=Last Night
TTITLE2=100 % Satisfaction
TTITLE3=My Way Or The Highway
TTITLE4=We're Gonna Rock
TTITLE5=Voodoo Woman
TTITLE6=Since Day One
TTITLE7=Rock My Baby Right
TTITLE8=Hey, Hey, Hey
TTITLE9=Boogie Twist
TTITLE10=Missing You
TTITLE11=Talk To Me Baby
TTITLE12=Cold, Cold Heart
TTITLE13=Gonna Start To Walkin'
EXTD=John Studebaker and The Hawks\nAlbum - Tremoluxe
EXTT0=
EXTT1=
EXTT2=
EXTT3=
EXTT4=
EXTT5=
EXTT6=
EXTT7=
EXTT8=
EXTT9=
EXTT10=
EXTT11=
EXTT12=
EXTT13=
PLAYORDER=
